<svg width="37.969" height="43" viewBox="0 0 37.969 43">
  <path id="Icon" d="M494.585,2041.05a0.726,0.726,0,0,0-.717.73v2.91a0.717,0.717,0,1,0,1.434,0v-2.91A0.726,0.726,0,0,0,494.585,2041.05Zm2.867,1.46a0.719,0.719,0,0,0-.717.73v2.91a0.717,0.717,0,1,0,1.434,0v-2.91A0.719,0.719,0,0,0,497.452,2042.51Zm26.15,3.91a0.706,0.706,0,0,0-.99.22,0.746,0.746,0,0,0,.187.99,4.406,4.406,0,0,1,1.166,6.06,4.253,4.253,0,0,1-5.971,1.19,4.419,4.419,0,0,1-1.166-6.07,4.272,4.272,0,0,1,3.566-1.93,0.73,0.73,0,0,0,0-1.46,5.831,5.831,0,1,0,5.737,5.83A5.843,5.843,0,0,0,523.6,2046.42Zm5.058,2.41a8.712,8.712,0,0,0-4.681-5.52v-16.1a0.732,0.732,0,0,0-.352-0.63l-15.773-9.47a0.685,0.685,0,0,0-.729,0l-15.773,9.47c-0.015.01-.026,0.02-0.04,0.03l-0.043.03a0.7,0.7,0,0,0-.158.18,0.1,0.1,0,0,1-.011.02h0a0.675,0.675,0,0,0-.082.24c0,0.02-.006.04-0.008,0.06a0.487,0.487,0,0,0-.01.07v18.94a0.732,0.732,0,0,0,.352.63l15.773,9.47,0.058,0.03a0.134,0.134,0,0,0,.06.02,0.6,0.6,0,0,0,.493,0,0.142,0.142,0,0,0,.061-0.02l0.057-.03,4.281-2.57a8.576,8.576,0,0,0,10.648,5.97A8.755,8.755,0,0,0,528.66,2048.83Zm-21.17-30.25,3.728,2.24-5.528,3.32a0.736,0.736,0,0,0-.253,1,0.711,0.711,0,0,0,.983.25l6.208-3.72,3.728,2.24-14.363,8.62-3.728-2.24,6-3.61a0.726,0.726,0,0,0,.253-0.99,0.705,0.705,0,0,0-.983-0.26l-6.685,4.01-3.729-2.23Zm-6.214,15.21v4.87l-3.7-2.23v-4.86Zm10.8,15.21a8.873,8.873,0,0,0-.283,2.25,9.143,9.143,0,0,0,.047.92l-3.632,2.18v-2.37a0.717,0.717,0,1,0-1.433,0v2.37l-14.339-8.61v-17.26l3.7,2.23v6.14a0.732,0.732,0,0,0,.352.63l5.138,3.08a0.682,0.682,0,0,0,.365.11,0.726,0.726,0,0,0,.717-0.73v-5.29l4.063,2.44v11.98a0.717,0.717,0,1,0,1.433,0v-11.98l12.994-7.8a0.736,0.736,0,0,0,.253-1,0.711,0.711,0,0,0-.983-0.25l-12.98,7.79-4.087-2.45,14.363-8.63,4.779,2.87v15.18A8.555,8.555,0,0,0,512.074,2049Zm8.32,9.54a7.286,7.286,0,1,1,7.17-7.29A7.228,7.228,0,0,1,520.394,2058.54Zm-1.644-7.07a0.707,0.707,0,0,0-1.013.01,0.745,0.745,0,0,0,0,1.02l1.075,1.09a0.717,0.717,0,0,0,1.014,0l3.226-3.28a0.737,0.737,0,0,0-.018-1.03,0.714,0.714,0,0,0-1,0l-2.719,2.76Z" transform="translate(-491 -2017)"/>
</svg>
