<svg width="40" height="35" viewBox="0 0 40 35">
  <path d="M1108.64,2037.64a0.7,0.7,0,0,0,.69-0.7v-1.06a0.7,0.7,0,0,0-1.39,0v1.06A0.7,0.7,0,0,0,1108.64,2037.64Zm0,4.24a0.691,0.691,0,0,0,.69-0.69v-1.07a0.7,0.7,0,0,0-1.39,0v1.07A0.694,0.694,0,0,0,1108.64,2041.88Zm-14.37,13.73h1.21a0.682,0.682,0,0,0,.7-0.69,0.669,0.669,0,0,0-.7-0.69h-1.21a0.659,0.659,0,0,0-.52.22,0.7,0.7,0,0,0-.17.47A0.672,0.672,0,0,0,1094.27,2055.61Zm0-2.65h1.21a0.645,0.645,0,0,0,.52-0.22,0.694,0.694,0,0,0-.52-1.16h-1.21a0.659,0.659,0,0,0-.52.22,0.7,0.7,0,0,0-.17.47A0.672,0.672,0,0,0,1094.27,2052.96Zm14.37-19.57a0.694,0.694,0,0,0,.69-0.7v-1.06a0.7,0.7,0,0,0-1.39,0v1.06A0.7,0.7,0,0,0,1108.64,2033.39Zm0,12.74a0.7,0.7,0,0,0,.69-0.7v-1.06a0.7,0.7,0,0,0-1.39,0v1.06A0.7,0.7,0,0,0,1108.64,2046.13Zm-2.59-3.6a0.7,0.7,0,0,0,.7-0.69v-1.06a0.7,0.7,0,0,0-1.4,0v1.06A0.694,0.694,0,0,0,1106.05,2042.53Zm0,8.5a0.7,0.7,0,0,0,.7-0.69v-1.07a0.7,0.7,0,0,0-1.4,0v1.07A0.694,0.694,0,0,0,1106.05,2051.03Zm0-4.25a0.7,0.7,0,0,0,.7-0.69v-1.07a0.7,0.7,0,0,0-1.4,0v1.07A0.694,0.694,0,0,0,1106.05,2046.78Zm2.59,3.59a0.691,0.691,0,0,0,.69-0.69v-1.07a0.7,0.7,0,0,0-1.39,0v1.07A0.694,0.694,0,0,0,1108.64,2050.37Zm-2.59,4.9a0.7,0.7,0,0,0,.7-0.69v-1.06a0.7,0.7,0,0,0-1.4,0v1.06A0.694,0.694,0,0,0,1106.05,2055.27Zm0-25.47a0.7,0.7,0,0,0,.7-0.69v-1.07a0.7,0.7,0,0,0-1.4,0v1.07A0.694,0.694,0,0,0,1106.05,2029.8Zm0,8.49a0.7,0.7,0,0,0,.7-0.69v-1.07a0.7,0.7,0,0,0-1.4,0v1.07A0.694,0.694,0,0,0,1106.05,2038.29Zm2.59,16.33a0.691,0.691,0,0,0,.69-0.69v-1.07a0.7,0.7,0,0,0-1.39,0v1.06A0.7,0.7,0,0,0,1108.64,2054.62Zm-2.59-20.58a0.7,0.7,0,0,0,.7-0.69v-1.06a0.7,0.7,0,0,0-1.4,0v1.06A0.694,0.694,0,0,0,1106.05,2034.04Zm2.59-4.9a0.691,0.691,0,0,0,.69-0.69v-1.07a0.7,0.7,0,0,0-1.39,0v1.07A0.694,0.694,0,0,0,1108.64,2029.14Zm-7.75,23.82h1.21a0.645,0.645,0,0,0,.52-0.22,0.694,0.694,0,0,0-.52-1.16h-1.21a0.659,0.659,0,0,0-.52.22,0.7,0.7,0,0,0-.18.47A0.674,0.674,0,0,0,1100.89,2052.96Zm0,2.65h1.21a0.682,0.682,0,0,0,.7-0.69,0.669,0.669,0,0,0-.7-0.69h-1.21a0.659,0.659,0,0,0-.52.22,0.7,0.7,0,0,0-.18.47A0.674,0.674,0,0,0,1100.89,2055.61Zm-3.31-13.25h1.21a0.666,0.666,0,0,0,.53-0.22,0.7,0.7,0,0,0,.17-0.47,0.674,0.674,0,0,0-.7-0.69h-1.21a0.693,0.693,0,0,0-.52.22,0.723,0.723,0,0,0-.18.47A0.669,0.669,0,0,0,1097.58,2042.36Zm3.31,7.95h1.21a0.645,0.645,0,0,0,.52-0.22,0.657,0.657,0,0,0,.18-0.47,0.674,0.674,0,0,0-.7-0.69h-1.21a0.659,0.659,0,0,0-.52.22,0.7,0.7,0,0,0-.18.47A0.674,0.674,0,0,0,1100.89,2050.31Zm0-7.95h1.21a0.645,0.645,0,0,0,.52-0.22,0.657,0.657,0,0,0,.18-0.47,0.674,0.674,0,0,0-.7-0.69h-1.21a0.693,0.693,0,0,0-.52.22,0.723,0.723,0,0,0-.18.47A0.669,0.669,0,0,0,1100.89,2042.36Zm0,5.3h1.21a0.645,0.645,0,0,0,.52-0.22,0.657,0.657,0,0,0,.18-0.47,0.674,0.674,0,0,0-.7-0.69h-1.21a0.659,0.659,0,0,0-.52.22,0.7,0.7,0,0,0-.18.47A0.674,0.674,0,0,0,1100.89,2047.66Zm-3.31-2.65h1.21a0.666,0.666,0,0,0,.53-0.22,0.7,0.7,0,0,0,.17-0.47,0.674,0.674,0,0,0-.7-0.69h-1.21a0.693,0.693,0,0,0-.52.22,0.7,0.7,0,0,0-.18.47A0.669,0.669,0,0,0,1097.58,2045.01Zm-3.31,5.3h1.21a0.645,0.645,0,0,0,.52-0.22,0.657,0.657,0,0,0,.18-0.47,0.674,0.674,0,0,0-.7-0.69h-1.21a0.659,0.659,0,0,0-.52.22,0.7,0.7,0,0,0-.17.47A0.672,0.672,0,0,0,1094.27,2050.31Zm6.62-5.3h1.21a0.645,0.645,0,0,0,.52-0.22,0.657,0.657,0,0,0,.18-0.47,0.674,0.674,0,0,0-.7-0.69h-1.21a0.693,0.693,0,0,0-.52.22,0.7,0.7,0,0,0-.18.47A0.669,0.669,0,0,0,1100.89,2045.01Zm-3.31,2.65h1.21a0.666,0.666,0,0,0,.53-0.22,0.7,0.7,0,0,0,.17-0.47,0.674,0.674,0,0,0-.7-0.69h-1.21a0.659,0.659,0,0,0-.52.22,0.7,0.7,0,0,0-.18.47A0.674,0.674,0,0,0,1097.58,2047.66Zm-3.31-5.3h1.21a0.645,0.645,0,0,0,.52-0.22,0.657,0.657,0,0,0,.18-0.47,0.674,0.674,0,0,0-.7-0.69h-1.21a0.693,0.693,0,0,0-.52.22,0.714,0.714,0,0,0-.17.47A0.666,0.666,0,0,0,1094.27,2042.36Zm0,5.3h1.21a0.645,0.645,0,0,0,.52-0.22,0.657,0.657,0,0,0,.18-0.47,0.674,0.674,0,0,0-.7-0.69h-1.21a0.659,0.659,0,0,0-.52.22,0.7,0.7,0,0,0-.17.47A0.672,0.672,0,0,0,1094.27,2047.66Zm0-2.65h1.21a0.645,0.645,0,0,0,.52-0.22,0.657,0.657,0,0,0,.18-0.47,0.674,0.674,0,0,0-.7-0.69h-1.21a0.665,0.665,0,0,0-.69.69A0.666,0.666,0,0,0,1094.27,2045.01Zm3.31,5.3h1.21a0.666,0.666,0,0,0,.53-0.22,0.7,0.7,0,0,0,.17-0.47,0.674,0.674,0,0,0-.7-0.69h-1.21a0.659,0.659,0,0,0-.52.22,0.7,0.7,0,0,0-.18.47A0.674,0.674,0,0,0,1097.58,2050.31Zm0,2.65h1.21a0.666,0.666,0,0,0,.53-0.22,0.714,0.714,0,0,0,.17-0.47,0.669,0.669,0,0,0-.7-0.69h-1.21a0.659,0.659,0,0,0-.52.22,0.7,0.7,0,0,0-.18.47A0.674,0.674,0,0,0,1097.58,2052.96Zm0,2.65h1.21a0.7,0.7,0,0,0,.53-0.22,0.714,0.714,0,0,0,.17-0.47,0.669,0.669,0,0,0-.7-0.69h-1.21a0.659,0.659,0,0,0-.52.22,0.7,0.7,0,0,0-.18.47A0.674,0.674,0,0,0,1097.58,2055.61Zm25.99-15.01a0.694,0.694,0,0,0,.7-0.69v-0.57a0.7,0.7,0,0,0-1.4,0v0.57A0.7,0.7,0,0,0,1123.57,2040.6Zm1.91,6.77a0.694,0.694,0,0,0,.7-0.69v-0.57a0.7,0.7,0,0,0-1.39,0v0.57A0.691,0.691,0,0,0,1125.48,2047.37Zm0-2.79a0.694,0.694,0,0,0,.7-0.69v-0.57a0.7,0.7,0,0,0-1.39,0v0.57A0.691,0.691,0,0,0,1125.48,2044.58Zm0,5.58a0.694,0.694,0,0,0,.7-0.69v-0.57a0.7,0.7,0,0,0-1.39,0v0.57A0.691,0.691,0,0,0,1125.48,2050.16Zm0-8.37a0.694,0.694,0,0,0,.7-0.69v-0.57a0.7,0.7,0,0,0-1.39,0v0.57A0.691,0.691,0,0,0,1125.48,2041.79Zm-12.93,7.97a0.694,0.694,0,0,0,.7-0.69V2048a0.7,0.7,0,0,0-1.39,0v1.07A0.691,0.691,0,0,0,1112.55,2049.76Zm0-4.23a0.694,0.694,0,0,0,.7-0.69v-1.07a0.7,0.7,0,0,0-1.39,0v1.07A0.691,0.691,0,0,0,1112.55,2045.53Zm12.93,7.42a0.7,0.7,0,0,0,.7-0.7v-0.57a0.7,0.7,0,0,0-1.39,0v0.57A0.694,0.694,0,0,0,1125.48,2052.95Zm-12.93,1.04a0.694,0.694,0,0,0,.7-0.69v-1.07a0.7,0.7,0,0,0-1.39,0v1.07A0.691,0.691,0,0,0,1112.55,2053.99Zm11.02-5.03a0.694,0.694,0,0,0,.7-0.69v-0.57a0.7,0.7,0,0,0-1.4,0v0.57A0.7,0.7,0,0,0,1123.57,2048.96Zm0,5.58a0.694,0.694,0,0,0,.7-0.69v-0.57a0.7,0.7,0,0,0-1.4,0v0.57A0.7,0.7,0,0,0,1123.57,2054.54Zm5.7,1.84h-1.01v-17.36a0.689,0.689,0,0,0-.34-0.6l-5.98-3.45-0.02-.01a0.659,0.659,0,0,0-.32-0.08h-2.51v-8.16a0.664,0.664,0,0,0-.42-0.63l-7.75-3.24a1.419,1.419,0,0,0-.22-0.05h-0.06a0.692,0.692,0,0,0-.28.05l-6.6,2.58a0.694,0.694,0,0,0-.44.65v12.73h-10.97a0.691,0.691,0,0,0-.69.69v16.88h-1.01a0.7,0.7,0,1,0,0,1.39l1.7,0.01a0.121,0.121,0,0,0,.05-0.01h11.67l6.57,0.01c0.03,0,.05-0.01.04-0.01l7.72,0.01a0.1,0.1,0,0,0,.04-0.01l3.16,0.01a0.058,0.058,0,0,0,.04-0.01l5.92,0.01a0.121,0.121,0,0,0,.05-0.01h1.66A0.7,0.7,0,1,0,1129.27,2056.38Zm-2.4-16.96v16.96h-4.57v-19.61Zm-5.97-3.16v20.12h-1.81v-20.12h1.81Zm-3.2-9.08v29.2h-6.36v-31.85Zm-7.76-2.67v31.87h-5.22v-29.83Zm-6.62,15.69v16.18h-10.27V2040.2h10.27Zm20.25,11.55a0.694,0.694,0,0,0,.7-0.69v-0.57a0.7,0.7,0,0,0-1.4,0v0.57A0.7,0.7,0,0,0,1123.57,2051.75Zm-11.02-10.45a0.694,0.694,0,0,0,.7-0.69v-1.07a0.7,0.7,0,0,0-1.39,0v1.07A0.691,0.691,0,0,0,1112.55,2041.3Zm11.02,2.09a0.7,0.7,0,0,0,.7-0.7v-0.57a0.7,0.7,0,0,0-1.4,0v0.57A0.7,0.7,0,0,0,1123.57,2043.39Zm1.91,12.34a0.694,0.694,0,0,0,.7-0.69v-0.57a0.7,0.7,0,0,0-1.39,0v0.57A0.691,0.691,0,0,0,1125.48,2055.73Zm-1.91-9.56a0.694,0.694,0,0,0,.7-0.69v-0.57a0.7,0.7,0,0,0-1.4,0v0.57A0.7,0.7,0,0,0,1123.57,2046.17Zm-9.1,8.54a0.694,0.694,0,0,0,.7-0.69v-1.07a0.7,0.7,0,0,0-1.4,0v1.07A0.7,0.7,0,0,0,1114.47,2054.71Zm1.92-3.51a0.7,0.7,0,0,0,.7-0.69v-1.07a0.7,0.7,0,0,0-1.4,0v1.07A0.694,0.694,0,0,0,1116.39,2051.2Zm0-4.23a0.7,0.7,0,0,0,.7-0.7v-1.06a0.7,0.7,0,0,0-1.4,0v1.06A0.7,0.7,0,0,0,1116.39,2046.97Zm0,8.46a0.7,0.7,0,0,0,.7-0.69v-1.07a0.7,0.7,0,0,0-1.4,0v1.07A0.694,0.694,0,0,0,1116.39,2055.43Zm-1.92-26.11a0.694,0.694,0,0,0,.7-0.69v-1.06a0.7,0.7,0,0,0-1.4,0v1.06A0.7,0.7,0,0,0,1114.47,2029.32Zm0,4.23a0.694,0.694,0,0,0,.7-0.69v-1.06a0.7,0.7,0,0,0-1.4,0v1.06A0.7,0.7,0,0,0,1114.47,2033.55Zm1.92,0.72a0.7,0.7,0,0,0,.7-0.69v-1.06a0.7,0.7,0,0,0-1.4,0v1.06A0.694,0.694,0,0,0,1116.39,2034.27Zm0,8.47a0.709,0.709,0,0,0,.7-0.7v-1.06a0.7,0.7,0,0,0-1.4,0v1.06A0.7,0.7,0,0,0,1116.39,2042.74Zm0-4.24a0.7,0.7,0,0,0,.7-0.69v-1.06a0.7,0.7,0,0,0-1.4,0v1.06A0.694,0.694,0,0,0,1116.39,2038.5Zm-1.92,3.52a0.7,0.7,0,0,0,.7-0.7v-1.06a0.7,0.7,0,0,0-1.4,0v1.06A0.7,0.7,0,0,0,1114.47,2042.02Zm0-4.23a0.7,0.7,0,0,0,.7-0.7v-1.06a0.7,0.7,0,0,0-1.4,0v1.06A0.7,0.7,0,0,0,1114.47,2037.79Zm1.92-7.75a0.7,0.7,0,0,0,.7-0.69v-1.06a0.7,0.7,0,0,0-1.4,0v1.06A0.694,0.694,0,0,0,1116.39,2030.04Zm-3.84,2.8a0.7,0.7,0,0,0,.7-0.7v-1.06a0.7,0.7,0,0,0-1.39,0v1.06A0.694,0.694,0,0,0,1112.55,2032.84Zm0-4.24a0.694,0.694,0,0,0,.7-0.69v-1.06a0.7,0.7,0,0,0-1.39,0v1.06A0.691,0.691,0,0,0,1112.55,2028.6Zm0,8.47a0.684,0.684,0,0,0,.7-0.7v-1.06a0.7,0.7,0,0,0-1.39,0v1.06A0.694,0.694,0,0,0,1112.55,2037.07Zm1.92,9.18a0.7,0.7,0,0,0,.7-0.7v-1.06a0.7,0.7,0,0,0-1.4,0v1.06A0.7,0.7,0,0,0,1114.47,2046.25Zm0,4.23a0.694,0.694,0,0,0,.7-0.69v-1.07a0.7,0.7,0,0,0-1.4,0v1.07A0.7,0.7,0,0,0,1114.47,2050.48Z" transform="translate(-1089.97 -2022.78)"/>
</svg>
