<svg xmlns="http://www.w3.org/2000/svg" width="39.97" height="34" viewBox="0 0 39.97 34">
  <defs>
    <style>
      .cls-1 {
        fill: #fff;
        fill-rule: evenodd;
      }
    </style>
  </defs>
  <path class="cls-1" d="M1408.22,2037.57a0.784,0.784,0,0,1-.21-1.54l0.04-.01a0.785,0.785,0,0,1,.39,1.52l-0.02.01a0.714,0.714,0,0,1-.2.02h0Zm0,0,5.26,7.56a2.15,2.15,0,0,1-2.07-1.6,0.8,0.8,0,0,1,.55-0.97,0.786,0.786,0,0,1,.96.56,0.576,0.576,0,0,0,.27.36,0.566,0.566,0,0,0,.79-0.22,0.563,0.563,0,0,0,.06-0.44,0.8,0.8,0,0,1,.55-0.97,0.786,0.786,0,0,1,.96.56,2.138,2.138,0,0,1-.22,1.64,2.1,2.1,0,0,1-1.3,1.01,2.075,2.075,0,0,1-.55.07h0Zm0,0-6.76,1.82a2.017,2.017,0,0,1-1.06-.29,2.1,2.1,0,0,1-1-1.31,0.78,0.78,0,0,1,.55-0.96,0.79,0.79,0,0,1,.96.56,0.557,0.557,0,0,0,.27.35,0.563,0.563,0,0,0,.44.06,0.588,0.588,0,0,0,.41-0.72,0.782,0.782,0,1,1,1.51-.41,2.184,2.184,0,0,1-.22,1.64,2.127,2.127,0,0,1-1.3,1.01,2.1,2.1,0,0,1-.56.07h0Zm0,0,4.7,5.16a3.208,3.208,0,0,1-3.09-2.4,0.788,0.788,0,0,1,.55-0.96,0.78,0.78,0,0,1,.96.55,1.6,1.6,0,0,0,.77,1.01,1.644,1.644,0,0,0,2.41-1.87,0.781,0.781,0,1,1,1.51-.4,3.238,3.238,0,0,1-2.27,3.96,3.46,3.46,0,0,1-.84.11h0Zm0,0,10.17-8.18a11.093,11.093,0,0,0-10.04-8.27,0.8,0.8,0,0,0-.83.74,0.777,0.777,0,0,0,.73.83,9.615,9.615,0,0,1,1.9,18.86,9.327,9.327,0,0,1-2.45.33,9.564,9.564,0,0,1-8.02-4.39,11.166,11.166,0,0,0,0-10.42,9.7,9.7,0,0,1,2.91-2.9,0.8,0.8,0,0,0,.24-1.09,0.769,0.769,0,0,0-1.08-.24,11.1,11.1,0,0,0-2.97,2.79,11.18,11.18,0,1,0,0,13.3,11.231,11.231,0,0,0,4.67,3.68,11.043,11.043,0,0,0,4.22.85,10.919,10.919,0,0,0,2.88-.39,11.2,11.2,0,0,0,7.84-13.68h0Zm-28.51,12.49a9.6,9.6,0,1,1,9.52-9.6,9.566,9.566,0,0,1-9.52,9.6h0Zm0,0-2.13-10.48a0.783,0.783,0,0,1-.78-0.79,0.58,0.58,0,0,0-1.16,0,0.78,0.78,0,1,1-1.56,0,2.14,2.14,0,1,1,4.28,0,0.783,0.783,0,0,1-.78.79h0Zm0,0,6.99,0a0.783,0.783,0,0,1-.78-0.79,0.58,0.58,0,0,0-1.16,0,0.78,0.78,0,1,1-1.56,0,2.14,2.14,0,1,1,4.28,0,0.783,0.783,0,0,1-.78.79h0Zm0,0-4.86,6.24a3.224,3.224,0,0,1-3.21-3.23,0.785,0.785,0,1,1,1.57,0,1.645,1.645,0,1,0,3.29,0,0.78,0.78,0,1,1,1.56,0,3.224,3.224,0,0,1-3.21,3.23h0Zm0,0,8.92-22.85a0.783,0.783,0,0,1-.78-0.79v-3.75a0.78,0.78,0,1,1,1.56,0v3.75a0.783,0.783,0,0,1-.78.79h0Zm0,0,0,3.32a0.768,0.768,0,0,1-.78-0.78,0.821,0.821,0,0,1,.22-0.56,0.785,0.785,0,0,1,1.11,0,0.831,0.831,0,0,1,.23.56,0.785,0.785,0,0,1-.78.78h0Zm0,0-4.03-1.36a0.781,0.781,0,0,1-.55-0.23l-2.59-2.61a0.779,0.779,0,0,1,0-1.11,0.767,0.767,0,0,1,1.1,0l2.59,2.61a0.785,0.785,0,0,1-.55,1.34h0Zm0,0,8.1-.07a0.785,0.785,0,0,1-.55-1.34l2.51-2.54a0.779,0.779,0,0,1,1.11,0,0.8,0.8,0,0,1,0,1.11l-2.52,2.54a0.781,0.781,0,0,1-.55.23h0Zm0,0" transform="translate(-1382 -2024)"/>
</svg>
