<svg width="35" height="35" viewBox="0 0 35 35">
  <path d="M804.073,2048.45h-5a0.762,0.762,0,0,0-.714.8v4.77a0.762,0.762,0,0,0,.714.8h5a0.762,0.762,0,0,0,.714-0.8v-4.77a0.762,0.762,0,0,0-.714-0.8h0Zm-0.715,4.78h-3.571v-3.18h3.571v3.18Zm0,0,2.5-3.58h3.215v1.59h-3.215v-1.59Zm0,2.38h8.215v1.59h-8.215v-1.59Zm13.93,0.8h2.857v1.59h-2.857v-1.59Zm0-2.39h2.857v1.59h-2.857v-1.59Zm8.17-9.02-2.5-7.56a0.725,0.725,0,0,0-.67-0.52H820.5v-9.54a0.762,0.762,0,0,0-.714-0.8H801.215a0.762,0.762,0,0,0-.714.8v9.54h-4.286a0.718,0.718,0,0,0-.666.51l-2.5,7.16a0.858,0.858,0,0,0,.076.73,0.694,0.694,0,0,0,.59.35H795.5v15.11a0.762,0.762,0,0,0,.714.8h28.573a0.762,0.762,0,0,0,.714-0.8v-14.71h1.786a0.7,0.7,0,0,0,.586-0.34,0.874,0.874,0,0,0,.084-0.73h0Zm-26.028-16.83h11.429v2.39H801.93v-2.39Zm0,3.98h11.429v4.77H801.93v-4.77Zm-7.171,11.93,1.945-5.57h19.9l-1.944,5.57h-19.9Zm22.171,15.91h-20v-14.32h18.216a0.717,0.717,0,0,0,.665-0.51l1.12-3.2v18.03Zm-2.143-23.07v-8.75h4.286v8.75h-4.286Zm9.287,23.07h-5.715v-18.74l1.855,4.36a0.714,0.714,0,0,0,.645.46h3.215v13.92Zm-2.763-15.51-2.538-5.97h5.517l1.974,5.97h-4.953Zm0,0-5.452-14.72H818v1.59h-2.143v-1.59Zm0,2.39H818v1.59h-2.143v-1.59Z" transform="translate(-793 -2023)"/>
</svg>
