<svg xmlns="http://www.w3.org/2000/svg" width="60" height="40" viewBox="0 0 60 40">
  <defs>
    <style>
      .cls-1 {
        fill: #fff;
        fill-rule: evenodd;
      }
    </style>
  </defs>
  <path class="cls-1" d="M479.053,1069.25a5.62,5.62,0,0,0-3.909,1.57,5.291,5.291,0,0,0-1.638,3.8,5.21,5.21,0,0,0,1.638,3.8,5.607,5.607,0,0,0,3.909,1.58A5.376,5.376,0,1,0,479.053,1069.25Zm0,8.36a2.987,2.987,0,1,1,0-5.97A2.985,2.985,0,1,1,479.053,1077.61Zm1.417-26.27a1.215,1.215,0,0,0-.818-0.31h-6.268a1.213,1.213,0,0,0-1.222,1.19v9.8a1.206,1.206,0,0,0,1.222,1.19h9.945a1.206,1.206,0,0,0,1.222-1.19v-6.56a1.173,1.173,0,0,0-.4-0.88Zm1.637,9.48h-7.5v-7.41h4.569l2.932,2.58v4.83Zm-32.889,8.43a5.624,5.624,0,0,0-3.91,1.57,5.294,5.294,0,0,0-1.637,3.8,5.213,5.213,0,0,0,1.637,3.8,5.611,5.611,0,0,0,3.91,1.58A5.376,5.376,0,1,0,449.218,1069.25Zm0,8.36a2.987,2.987,0,1,1,0-5.97A2.985,2.985,0,1,1,449.218,1077.61Zm-8.149-6.89h-2.456v-3.18a1.222,1.222,0,0,0-2.444,0v4.37a1.215,1.215,0,0,0,1.222,1.2h3.678A1.2,1.2,0,1,0,441.069,1070.72Zm6.194-6.51a1.214,1.214,0,0,0-1.222-1.2H431.222a1.2,1.2,0,1,0,0,2.39h14.819A1.206,1.206,0,0,0,447.263,1064.21Zm-13.561-4.32,14.82,0.09a1.225,1.225,0,0,0,1.234-1.19,1.191,1.191,0,0,0-1.21-1.2l-14.82-.09h-0.012a1.206,1.206,0,0,0-1.222,1.19A1.191,1.191,0,0,0,433.7,1059.89Zm2.492-5.42h14.82a1.2,1.2,0,1,0,0-2.39h-14.82A1.2,1.2,0,1,0,436.194,1054.47Zm53.354-1.61-8.748-7.09a1.211,1.211,0,0,0-.782-0.27H469.731v-4.3a1.215,1.215,0,0,0-1.221-1.2H437.391a1.215,1.215,0,0,0-1.222,1.2v8.74a1.222,1.222,0,0,0,2.444,0v-7.55H467.3v28.33H457.282a1.2,1.2,0,1,0,0,2.39H472.2a1.2,1.2,0,1,0,0-2.39h-2.456v-22.83h9.848l7.965,6.45-0.085,16.35H486.2a1.2,1.2,0,1,0,0,2.39h2.48a1.2,1.2,0,0,0,1.222-1.18l0.1-18.11A1.233,1.233,0,0,0,489.548,1052.86Z" transform="translate(-430 -1040)"/>
</svg>
