<?xml version="1.0" encoding="UTF-8"?><svg id="Layer_2" xmlns="http://www.w3.org/2000/svg" viewBox="0 0 442.23 336.7"><defs><style>.cls-1{font-family:Obviously-ExtdSemiItalic, Obviously;font-size:12px;}.cls-1,.cls-2{fill:#ed9a24;}</style></defs><g id="Layer_1-2"><g><g><path class="cls-2" d="M268.56,149.54c2.04,2.63,3.91,5.4,5.56,8.29,1.01,1.76,1.84,3.61,2.65,5.46,1.63,3.74,2.97,7.62,3.79,11.62,.43,2.14,.76,4.31,.98,6.49,.05,.61,.11,1.21,.14,1.82,.79,12.11-4.65,21.03-14.14,27.9-9.58,6.95-20.74,9.71-32.07,12-20.34,4.12-69.61,.7-90.19-.04h-.04c-7.04-.65-24.93-2.28-25.39-2.33l-.16-.02-1.04-.11-.84-.08-2.83-.28-24.02-2.12s1.57-.03,3.81-.06h.13c4.31-.07,10.93-.21,13.86-.33,3.37-.14,8.92-.5,12.27-.94,20.19-33.65,40.39-67.36,60.82-101.43,12.34,7.51,24.32,14.86,36.37,22.09,4.06,2.44,8.13,4.86,12.22,7.25,4.04,2.36,8.14,4.63,12.22,6.91,.92,.51,2.67,1.47,3.94,2.17-.07,.55-.15,1.08-.17,1.23-.1,.62-.21,1.24-.33,1.86-.19,.97-.34,1.96-.58,2.91-.89,3.59-2.16,7.07-3.77,10.41-1.55,3.2-3.43,6.24-5.58,9.09s-4.56,5.5-7.15,7.95c-2.66,2.51-5.5,4.82-8.46,6.96-10.2,7.37-17.04,11.79-28.72,16.33-3.45,1.34-6.55,2.43-9.35,3.33,15.41-.24,32.55-.93,37.69-1.64,8.78-1.22,17.61-2.88,26.06-5.62,6.8-2.21,12.9-5.98,17.61-11.45,4.31-5,6.87-11.19,7.67-17.73,.14-1.07,.23-2.15,.27-3.22,.1-2.29,.09-4.6-.03-6.89-.13-2.28-.36-4.55-.7-6.81-.55-3.7-.95-7.55-2.48-10.96Zm-108.64,68.58c-.02,.2-.29,.28-.89,.18,.2-.09,.5-.14,.89-.18Z"/><path class="cls-2" d="M402.4,146.33c-4.7-9.12-13.12-13.08-22.31-15.71-3.37-.96-6.16-2.14-8.71-4.81-12.56-13.21-35.9-12.28-46.97,1.73,7.18,10.03,12.29,20.97,13.55,34.04-10-27.31-31.49-42.68-54.88-56.09-13.63-7.82-28.07-13.97-42.64-19.84-27.1-10.92-53.44-23.32-76.66-41.4-.75-.59-1.51-1.18-2.24-1.78-.74-.6-1.49-1.21-2.22-1.82-.74-.61-1.46-1.23-2.18-1.86-.71-.62-1.42-1.25-2.13-1.89-.7-.64-1.39-1.27-2.07-1.93-.68-.66-1.36-1.31-2.03-1.97-.66-.67-1.32-1.35-1.97-2.03-.65-.68-1.27-1.37-1.9-2.07-.63-.7-1.24-1.4-1.84-2.12-.61-.72-1.2-1.44-1.78-2.18-.58-.74-1.15-1.48-1.71-2.23-.56-.75-1.1-1.52-1.63-2.3-.53-.77-1.05-1.56-1.55-2.35-.5-.8-1-1.61-1.47-2.42-.48-.82-.94-1.65-1.38-2.49-.46-.84-.89-1.7-1.3-2.56-.42-.87-.83-1.75-1.21-2.63-.39-.9-.76-1.79-1.11-2.71-.19-.48-.37-.95-.53-1.44-.18-.55-.37-1.09-.57-1.64-.22-.61-.47-1.22-.72-1.82,0,.11,0,.17,0,.29V.81c0,1.55,.02,3.1,.02,4.65s-.02,3.11-.04,4.67c0,1.56-.03,3.11-.03,4.68s.02,3.13,.06,4.69c.05,1.57,.12,3.14,.23,4.7,.12,1.58,.28,3.15,.49,4.72,2.22,16.15,8.23,31.56,19.31,43.56,10.8,11.69,23.91,21.05,37.73,28.84,2.08,1.17,4.17,2.31,6.29,3.42,30.78,16.14,64.42,25.9,95.27,41.91,8.01,4.16,15.33,10.14,21.49,16.78,3.73,4.02,7.24,8.25,9.54,13.33,3.4-3.81,4.44-15.16,.73-10.32-11.02,14.34-18.4,31.21-30.1,45.05-5,5.92-10.89,11.15-17.87,14.62-1.77,.88-3.6,1.67-5.44,2.39-26.56,10.4-54.58,14.21-82.76,15.83-12.47,.72-24.98,.94-37.47,.71-12.53-.23-25.66-.61-38.14-1.53-12.98-.96-24.26-1.91-36.55-3.78-5.92-.91-11.98-1.87-17.87-2.98-13.32-2.52-22.8-5.46-34.75-8.85-.12-.04-.23-.07-.36-.11-6.09-1.74-13.4-3.6-19.49-5.31-.17-.04-.37-.07-.53-.14,7.07,3.3,16.56,7.74,17.04,7.96,33.03,14.92,68.04,25.14,103.73,31.25,4.01,.68,8.02,1.31,12.04,1.9,41.53,6.06,82.73,4.57,124-5.23-2.6,4.31-4.33,5.49-6.04,6.71-12.02,8.62-23.67,10.32-37.95,13.49-16.51,3.67-33.53,5.46-50.44,6.01-.31,0-3.76-.23-6.28-.39,9.31,5.6,24.12,14.08,34,20.07,1.9,1.16,3.75,2.28,5.56,3.37,.05,.04,.41,.27,1.01,.64H60.02c-1.1,1.85-2.21,3.7-3.32,5.54,45.14,.03,102.4,.04,149.17,0,4.27,2.57,9.42,5.66,14.56,8.74-51.24,.02-125.15,0-168.98,.04h-11.43c-1.34,2.23-2.67,4.46-4.01,6.69,3.81,0,7.63,0,11.43,0,10.1,0,20.18,0,30.27,0,44.99,0,107.72,0,153.88-.03,3.65,2.19,9.7,5.76,12.81,7.63,5.62-9.12,13.5-21.79,17.15-27.89,21.02-35.22,42.2-70.36,63.1-105.65,11.96-20.19,24.51-41.09,43.59-55.41,9.51-7.26,19.58-8.16,30.23-2.68,1.17,.6,2.58,1.27,4.23,2.22,0-.16-.18-.68-.3-.94Z"/></g><text class="cls-1" transform="translate(409.38 111.94)"><tspan x="0" y="0">TM</tspan></text></g></g></svg>